<?xml version="1.0" encoding="UTF-8" standalone="no"?>
<!DOCTYPE svg PUBLIC "-//W3C//DTD SVG 1.1//EN" "http://www.w3.org/Graphics/SVG/1.1/DTD/svg11.dtd">
<svg width="100%" height="100%" viewBox="0 0 1920 5" version="1.1" xmlns="http://www.w3.org/2000/svg" xmlns:xlink="http://www.w3.org/1999/xlink" xml:space="preserve" xmlns:serif="http://www.serif.com/" style="fill-rule:evenodd;clip-rule:evenodd;stroke-linejoin:round;stroke-miterlimit:2;">
    <g transform="matrix(1.02155,0,0,1,-6.54512,-5.42857)">
        <rect x="5.755" y="-2.546" width="197.122" height="21.245" style="fill:rgb(239,252,0);"/>
    </g>
    <g transform="matrix(1.02155,0,0,1,1176,-5.42857)">
        <rect x="5.755" y="-2.546" width="197.122" height="21.245" style="fill:rgb(239,252,0);"/>
    </g>
    <g transform="matrix(1,0,0,1,587.827,-5.42857)">
        <rect x="5.755" y="-2.546" width="197.122" height="21.245" style="fill:rgb(239,252,0);"/>
    </g>
    <g transform="matrix(1,0,0,1,1770.37,-5.42857)">
        <rect x="5.755" y="-2.546" width="197.122" height="21.245" style="fill:rgb(239,252,0);"/>
    </g>
    <g transform="matrix(1,0,0,1,194.735,-5.42857)">
        <rect x="5.755" y="-2.546" width="197.122" height="21.245" style="fill:rgb(247,11,0);"/>
    </g>
    <g transform="matrix(1,0,0,1,1377.28,-5.42857)">
        <rect x="5.755" y="-2.546" width="197.122" height="21.245" style="fill:rgb(247,11,0);"/>
    </g>
    <g transform="matrix(1,0,0,1,785.396,-5.42857)">
        <rect x="5.755" y="-2.546" width="197.122" height="21.245" style="fill:rgb(247,11,0);"/>
    </g>
    <g transform="matrix(1,0,0,1,391.133,-5.42857)">
        <rect x="5.755" y="-2.546" width="197.122" height="21.245" style="fill:rgb(9,152,255);"/>
    </g>
    <g transform="matrix(1,0,0,1,1573.67,-5.42857)">
        <rect x="5.755" y="-2.546" width="197.122" height="21.245" style="fill:rgb(9,152,255);"/>
    </g>
    <g transform="matrix(1,0,0,1,982.308,-5.42857)">
        <rect x="5.755" y="-2.546" width="197.122" height="21.245" style="fill:rgb(9,152,255);"/>
    </g>
</svg>
